<?xml version="1.0" encoding="UTF-8" standalone="no"?>
<!-- Created with Inkscape (http://www.inkscape.org/) -->

<svg
   version="1.1"
   id="svg1"
   width="811"
   height="528"
   viewBox="0 0 811 528"
   sodipodi:docname="KTRANSPORT-GOLD.svg"
   inkscape:version="1.4.3 (0d15f75, 2025-12-25)"
   xmlns:inkscape="http://www.inkscape.org/namespaces/inkscape"
   xmlns:sodipodi="http://sodipodi.sourceforge.net/DTD/sodipodi-0.dtd"
   xmlns="http://www.w3.org/2000/svg"
   xmlns:svg="http://www.w3.org/2000/svg">
  <defs
     id="defs1" />
  <sodipodi:namedview
     id="namedview1"
     pagecolor="#ffffff"
     bordercolor="#000000"
     borderopacity="0.25"
     inkscape:showpageshadow="2"
     inkscape:pageopacity="0.0"
     inkscape:pagecheckerboard="0"
     inkscape:deskcolor="#d1d1d1"
     showgrid="false"
     inkscape:zoom="0.76420455"
     inkscape:cx="475.65799"
     inkscape:cy="295.07807"
     inkscape:window-width="1536"
     inkscape:window-height="793"
     inkscape:window-x="-8"
     inkscape:window-y="1072"
     inkscape:window-maximized="1"
     inkscape:current-layer="g1" />
  <g
     inkscape:groupmode="layer"
     inkscape:label="Image"
     id="g1">
    <path
       style="fill:#c9a962;fill-opacity:1;stroke-width:1.37715"
       d="m 348.93434,480.36452 c 0,-3.06782 2.98885,-5.33386 4.92064,-3.73062 2.39491,1.9876 10.38162,-7.86694 9.49047,-11.70997 -0.3614,-1.55851 -1.23212,-7.05911 -1.93494,-12.22355 -1.43716,-10.56061 -3.47489,-14.28322 -6.46168,-11.8044 -1.03567,0.85952 -1.88303,0.99111 -1.88303,0.29241 0,-2.29357 3.2451,-4.57552 6.50673,-4.57552 4.01857,0 5.58585,3.84494 6.77272,16.61525 0.75059,8.07613 1.19376,9.30566 2.85666,7.92558 5.2111,-4.32482 9.20476,-17.67733 5.89841,-19.72078 -2.73506,-1.69037 -1.39377,-4.82005 2.06573,-4.82005 2.97767,0 3.44289,0.61479 3.44289,4.54966 0,6.57695 -5.58191,16.59807 -16.25962,29.19068 -8.79574,10.37311 -15.41498,14.672 -15.41498,10.01131 z m -232.7395,-14.98245 c 0,-0.56899 1.38401,-1.23254 3.07557,-1.47457 2.80106,-0.4008 3.40848,-2.15819 6.80519,-19.68882 2.71586,-14.01669 3.30147,-19.51332 2.15451,-20.22218 -0.8663,-0.53541 -2.06946,-0.66792 -2.6737,-0.29448 -0.60424,0.37345 -1.09863,0.0227 -1.09863,-0.77944 0,-1.88205 18.24159,-1.92282 24.96312,-0.0558 6.10689,1.69629 11.75135,7.09963 12.90544,12.35413 2.11496,9.62932 -5.36937,22.22979 -16.23887,27.33949 -5.85135,2.75066 -29.89263,5.01998 -29.89263,2.82164 z m 24.35488,-2.69496 c 13.25042,-5.02045 20.12335,-24.59808 12.01736,-34.23151 -3.08652,-3.66813 -4.47006,-4.23714 -10.30245,-4.23714 -7.58603,0 -6.61575,-1.65336 -10.10233,17.21446 -4.36032,23.59613 -4.37368,22.72308 0.34772,22.72308 2.28957,0 5.90744,-0.66101 8.0397,-1.46889 z m 28.82257,3.09995 c -0.38184,-0.61781 0.54644,-5.96632 2.06283,-11.88558 3.14007,-12.25755 2.74201,-15.20197 -1.85786,-13.74203 -2.75137,0.87325 -2.88618,0.73105 -1.21532,-1.28219 1.0336,-1.24542 3.73151,-2.26439 5.99537,-2.26439 3.98798,0 4.0899,0.16075 3.2741,5.16434 l -0.84204,5.16434 2.41021,-3.413 c 4.21026,-5.96197 7.10263,-8.25537 9.33236,-7.39973 3.2312,1.23991 1.79184,5.36395 -1.74127,4.98898 -4.14268,-0.43967 -7.98844,5.48271 -10.78206,16.60413 -2.10545,8.38187 -4.58111,11.39052 -6.63632,8.06513 z m 25.73516,-1.15965 c -0.75764,-1.97439 0.58362,-11.00682 3.32049,-22.36094 0.72659,-3.01434 0.47183,-3.21683 -2.96265,-2.35484 -2.28928,0.57458 -3.43727,0.4248 -2.93785,-0.38329 1.16247,-1.88092 9.11029,-3.42616 10.39956,-2.02191 0.59192,0.64469 7e-5,6.30337 -1.31522,12.57484 -2.40983,11.49036 -2.10195,13.40498 1.90824,11.86613 2.92542,-1.12259 2.78933,0.76143 -0.22001,3.04584 -3.33529,2.53186 -7.14591,2.36168 -8.19256,-0.36583 z m 22.37981,0.56147 c -0.2919,-0.9468 -0.84734,-6.0595 -1.23433,-11.36155 -0.88635,-12.14382 -1.90621,-14.87913 -5.2242,-14.01146 -1.41041,0.36883 -2.56438,0.1752 -2.56438,-0.43028 0,-1.45932 3.5839,-2.77272 7.56595,-2.77272 3.51787,0 4.44246,3.14737 5.15804,17.55846 0.19746,3.97638 0.94557,7.03438 1.66249,6.79556 0.7169,-0.2388 3.35072,-3.40494 5.85291,-7.03585 4.52926,-6.57241 5.81502,-12.24197 3.1498,-13.88917 -2.04624,-1.26464 -0.24226,-3.429 2.85807,-3.429 1.96024,0 2.67303,0.95439 2.67303,3.57905 0,5.19377 -3.29094,11.34471 -10.44589,19.52388 -6.41032,7.32797 -8.50555,8.54125 -9.45149,5.47308 z m 27.03846,0.77971 c -2.88147,-1.15275 -4.61072,-7.42858 -3.63623,-13.19656 0.58597,-3.46843 2.71524,-7.22153 6.13874,-10.82038 4.76131,-5.00518 5.78991,-5.47063 11.22627,-5.08011 5.29798,0.38058 6.03266,0.84331 6.40266,4.03268 0.51611,4.44862 -5.5718,10.0216 -13.56302,12.41583 -5.59996,1.67779 -7.01366,4.58652 -3.79397,7.80621 2.30848,2.30849 8.68666,2.06316 10.74182,-0.41315 2.02604,-2.44123 4.59075,-2.75501 3.82855,-0.4684 -1.34057,4.02172 -12.44207,7.68526 -17.34482,5.72388 z m 11.10624,-17.23577 c 2.38459,-1.67954 3.78718,-3.92376 3.78718,-6.05975 0,-7.57783 -8.066,-4.48014 -11.8959,4.56853 -1.03162,2.43734 -1.87566,4.80305 -1.87566,5.25714 0,1.3385 5.89294,-0.8842 9.98438,-3.76592 z m 15.82862,17.36546 c -0.34226,-0.34224 0.56572,-5.63837 2.01771,-11.76919 2.99746,-12.6564 2.59066,-15.56131 -2.00224,-14.29698 -3.0172,0.83056 -3.02946,0.79415 -0.43214,-1.2822 1.47027,-1.17537 4.18517,-2.13704 6.0331,-2.13704 3.10347,0 3.29696,0.38765 2.53551,5.07995 l -0.82437,5.07995 4.18733,-5.07995 c 3.31059,-4.01632 5.15612,-5.07995 8.81432,-5.07995 6.08461,0 6.88592,2.76615 4.18056,14.43142 -2.80192,12.08166 -2.78671,12.18382 1.66489,11.17425 l 3.78717,-0.85891 -3.25115,2.77534 c -3.84101,3.27885 -8.22044,3.61101 -9.33443,0.70801 -0.43632,-1.13703 0.26943,-6.40394 1.56834,-11.70423 2.43926,-9.95364 2.13601,-13.77157 -1.09388,-13.77157 -4.20511,0 -8.75632,7.68906 -11.93965,20.17147 -1.29607,5.08215 -4.1839,8.28682 -5.91107,6.55963 z m 52.09473,-1.35207 c -2.73581,-2.7358 -2.71164,-3.84654 0.44726,-20.55898 4.85223,-25.67112 4.75438,-24.10024 1.50124,-24.10024 -1.59391,0 -2.52033,-0.61109 -2.05873,-1.35796 0.77879,-1.26012 8.26157,-1.18008 9.54371,0.102 0.53109,0.5311 -0.95728,10.28836 -2.67092,17.50967 -0.66439,2.79975 -0.43555,3.00119 1.95569,1.72144 4.29863,-2.30056 11.83939,-1.73998 14.3816,1.06911 3.11045,3.43702 2.86056,8.14152 -0.81942,15.42596 -5.19083,10.2751 -16.85857,15.61081 -22.28043,10.18893 z m 11.7386,-2.95249 c 5.1772,-3.05824 9.12882,-12.83053 7.30216,-18.05812 -1.78942,-5.12106 -9.10218,-5.93833 -12.08625,-1.35075 -2.97625,4.57558 -4.4002,17.0939 -2.24042,19.69629 2.14379,2.58308 2.16673,2.58215 7.02451,-0.28742 z m 68.7267,2.36228 c -3.4104,-3.4104 -3.46475,-8.64985 -0.16426,-15.8373 4.24607,-9.24661 12.18764,-14.20308 18.75587,-11.70583 7.79358,2.96312 1.45251,13.15885 -10.39074,16.70718 -5.59996,1.67779 -7.01365,4.58652 -3.79397,7.80621 2.30848,2.30849 8.68666,2.06316 10.74182,-0.41315 1.96738,-2.37055 4.13148,-2.72063 4.13148,-0.66834 0,2.22823 -8.59077,6.85476 -12.73871,6.86039 -2.08295,0.002 -5.02662,-1.23429 -6.54149,-2.74916 z m 12.39441,-15.06654 c 3.61729,-2.56901 4.86617,-9.70691 1.87295,-10.70465 -2.5624,-0.85412 -8.70909,5.45292 -10.08368,10.34671 -1.19872,4.26772 -1.09249,4.49131 1.74571,3.67368 1.66217,-0.47881 4.57143,-1.97091 6.46502,-3.31574 z m 11.70583,16.4437 c -1.25325,-2.02781 0.48227,-4.13147 3.40845,-4.13147 1.40652,0 4.49199,-2.44272 6.85657,-5.42825 4.14698,-5.23599 4.22923,-5.59586 2.32197,-10.16056 -2.4057,-5.75764 -4.48595,-7.22006 -7.13868,-5.01848 -2.40539,1.99629 -2.70813,-0.17365 -0.35283,-2.52894 4.13345,-4.13345 12.11899,0.42419 12.11899,6.91678 0,3.76843 1.71083,2.85643 5.83982,-3.113 2.27895,-3.29479 4.87042,-5.45637 6.54151,-5.45637 3.81583,0 3.47794,2.55233 -0.54017,4.08002 -1.81917,0.69165 -4.94918,3.40978 -6.95558,6.04031 -3.47133,4.55116 -3.55139,5.01406 -1.653,9.55752 2.47374,5.92053 4.50054,7.2621 7.38037,4.88524 1.88923,-1.55927 2.12582,-1.52484 1.5507,0.22573 -0.37325,1.13615 -2.27407,2.96535 -4.22401,4.06486 -4.53151,2.55518 -7.48711,0.43642 -8.74505,-6.26898 -1.05124,-5.60359 -2.23781,-5.8591 -5.3255,-1.14669 -4.94679,7.54976 -9.24751,10.45308 -11.08356,7.48228 z m 38.47932,-0.57756 c -2.02764,-1.48266 -2.67324,-3.61361 -2.67324,-8.8237 0,-5.62256 0.77388,-7.82924 4.26485,-12.16114 5.08999,-6.31605 13.28074,-9.65375 18.19533,-7.41452 1.9435,0.88551 3.03229,2.40425 2.75518,3.84315 -0.59735,3.10172 -5.24658,4.06877 -5.24658,1.09128 0,-5.81446 -8.10345,-3.33244 -12.46296,3.81732 -5.26494,8.63469 -1.89895,19.98067 5.38823,18.16244 1.9975,-0.4984 4.72014,-1.88696 6.0503,-3.08571 1.33016,-1.19872 2.83421,-1.76376 3.34235,-1.25562 1.07717,1.07716 -2.98386,4.53709 -7.57192,6.45115 -4.50708,1.88026 -8.92962,1.65083 -12.04154,-0.62465 z m 29.10181,-0.20733 c -5.38327,-5.38326 -3.68351,-15.23013 4.04326,-23.4229 4.09379,-4.34067 5.26233,-4.83344 10.55845,-4.4524 5.03797,0.36248 6.02527,0.92321 6.41015,3.64066 0.25022,1.76668 -0.67936,4.46644 -2.06573,5.99944 -2.92814,3.23783 -11.77615,8.00284 -14.86024,8.00284 -2.51563,0 -2.81732,4.26105 -0.46801,6.61035 2.30848,2.30849 8.68666,2.06316 10.74182,-0.41315 1.96738,-2.37055 4.13148,-2.72063 4.13148,-0.66834 0,2.20329 -8.57029,6.85473 -12.64033,6.86039 -2.02887,0.002 -4.66174,-0.96776 -5.85085,-2.15689 z m 7.90221,-13.65526 c 6.30394,-2.63395 9.57135,-7.10362 7.72071,-10.56159 -1.82608,-3.41202 -4.29559,-3.20026 -7.94184,0.68097 -2.5317,2.6949 -6.47874,11.92636 -5.09926,11.92636 0.23334,0 2.62751,-0.92058 5.32039,-2.04574 z m 19.34628,13.74207 c -0.64862,-1.69026 4.1363,-29.01679 7.29289,-41.64949 0.63707,-2.54959 0.1988,-3.10602 -2.47363,-3.14049 -2.4902,-0.0321 -2.766,-0.31376 -1.18216,-1.20729 1.13615,-0.64099 3.61503,-1.03014 5.50862,-0.86481 4.00541,0.34972 4.0443,-0.7971 -0.80649,23.78159 -4.26573,21.61428 -4.26747,21.5366 0.4622,20.46395 l 3.78719,-0.85891 -3.25117,2.77534 c -3.8449,3.28217 -8.22071,3.61026 -9.33745,0.70011 z m 18.26787,-0.0425 c -0.44695,-1.16472 1.03607,-11.00728 3.29555,-21.87237 2.2595,-10.8651 4.10818,-20.44739 4.10818,-21.29401 0,-0.8466 -1.39437,-1.62723 -3.0986,-1.73471 -1.70423,-0.10739 -0.61973,-0.57227 2.41003,-1.03288 3.43332,-0.52194 5.65854,-0.28148 5.90656,0.63826 0.21888,0.81164 -1.48535,10.3603 -3.78718,21.21926 -2.30182,10.85895 -4.18512,20.33252 -4.18512,21.0524 0,0.71985 1.5493,0.91998 3.44289,0.44472 4.49061,-1.12708 4.44521,1.04386 -0.0648,3.09876 -4.74057,2.15996 -7.05684,2.01007 -8.02751,-0.51944 z m 20.8234,-0.26462 c -4.90476,-5.41969 -1.98,-17.66357 5.77893,-24.19228 5.0008,-4.2079 12.45803,-4.99756 15.26418,-1.61637 3.14131,3.78508 -0.54395,8.67223 -9.63514,12.77747 -8.17238,3.69034 -9.97609,6.30248 -6.64917,9.62941 2.29846,2.29845 6.78988,2.06218 10.52446,-0.55361 4.36082,-3.05445 5.04353,-1.68085 1.03588,2.08413 -4.63734,4.35655 -13.18317,5.33646 -16.31914,1.87125 z m 15.15633,-17.8946 c 3.96453,-5.26025 0.61343,-10.35842 -4.87721,-7.41993 -2.59858,1.39072 -7.17291,9.31787 -7.17291,12.4304 0,2.07352 9.77411,-1.99057 12.05012,-5.01047 z m 12.74836,19.34498 c 0.006,-0.62361 1.24818,-6.30016 2.76193,-12.61455 1.51377,-6.31439 2.38684,-12.07202 1.9402,-12.79472 -0.44666,-0.72271 -2.15433,-0.94685 -3.79481,-0.4981 -2.91202,0.79656 -2.91934,0.76526 -0.30947,-1.32115 1.47029,-1.17536 4.10409,-2.13704 5.85292,-2.13704 2.51695,0 3.17968,0.7563 3.17968,3.62861 v 3.62863 l 2.91226,-3.70234 c 2.36654,-3.00857 3.85035,-3.624 7.91864,-3.28432 4.96432,0.41449 5.00586,0.4701 4.9431,6.6152 -0.0349,3.40847 -0.58411,9.23526 -1.22068,12.94845 -1.11637,6.51187 -1.0503,6.72322 1.86338,5.96127 4.35296,-1.13832 2.84278,2.12063 -1.73189,3.73743 -6.34147,2.24121 -7.33445,-0.37148 -4.78263,-12.58385 2.47298,-11.83514 2.06849,-14.531 -2.08908,-13.92328 -3.62873,0.5304 -7.32781,6.87876 -10.43851,17.91459 -1.59948,5.67449 -3.23284,8.82227 -4.72905,9.11375 -1.2571,0.24489 -2.2813,-0.0651 -2.27599,-0.68858 z m 37.96259,-1.23015 c -7.173,-7.173 -0.59524,-24.33608 10.76352,-28.08481 6.3351,-2.09078 12.2192,0.1459 11.61034,4.41332 -0.63487,4.44965 -4.72287,4.7488 -5.80807,0.42503 -1.20276,-4.79223 -5.24938,-4.51403 -9.60322,0.66023 -4.55896,5.41801 -6.04522,13.1162 -3.43138,17.77308 2.59313,4.61999 6.14787,5.14489 10.92481,1.61314 2.13875,-1.58124 4.23533,-2.31402 4.65906,-1.62841 1.19392,1.93178 -8.02413,6.99046 -12.73819,6.99046 -2.31815,0 -5.18774,-0.97292 -6.37687,-2.16204 z m 27.65616,-0.35642 c -4.9857,-5.50914 -0.69226,-20.87554 7.1844,-25.71325 6.74947,-4.14543 15.32524,-2.78964 15.32524,2.42284 0,3.72982 -7.47821,10.31447 -13.89887,12.23815 -5.30964,1.59081 -6.18478,2.98876 -4.54542,7.26088 1.05601,2.75194 7.39964,2.84255 10.951,0.15643 3.55004,-2.68511 5.53041,-2.65679 3.28646,0.0469 -4.89218,5.89469 -14.50912,7.77993 -18.30281,3.58794 z m 10.14805,-14.02417 c 8.70825,-4.4426 9.30285,-15.19095 0.62154,-11.2355 -3.15695,1.43841 -7.54016,8.75435 -7.54016,12.58518 0,1.9593 0.70025,1.8227 6.91862,-1.34968 z m 16.9501,14.37011 c -0.99792,-2.60054 2.77659,-6.80786 4.91943,-5.48352 2.25773,1.39537 1.81924,5.86527 -0.66906,6.82012 -3.06758,1.17715 -3.31571,1.09913 -4.25037,-1.3366 z M 201.81101,425.38792 c 0.2534,-1.78165 1.57699,-3.4208 2.97799,-3.68794 1.95243,-0.37228 2.41887,0.24328 2.06573,2.72618 -0.2534,1.78164 -1.57699,3.42078 -2.97798,3.68793 -1.95243,0.37229 -2.41888,-0.24327 -2.06574,-2.72617 z m 279.33038,-79.6674 v -46.82333 h 6.19721 6.1972 v 5.57492 5.57492 l 5.02209,-4.87741 c 15.07975,-14.64526 42.39359,-7.86615 49.97768,12.40411 9.31104,24.88599 -4.8017,48.74366 -28.83379,48.74366 -7.83508,0 -16.78766,-3.15234 -21.04591,-7.4106 -2.23623,-2.23623 -2.36575,-1.38023 -2.36575,15.63565 v 18.00141 h -7.57437 -7.57436 z m 43.97113,5.85078 c 6.5306,-3.33003 9.64708,-8.11902 10.6179,-16.31613 2.1409,-18.07645 -12.73287,-30.30141 -28.03322,-23.04094 -8.16563,3.87486 -13.05936,15.9627 -10.73917,26.52648 1.09537,4.98715 6.78878,12.23497 10.92559,13.9085 4.77919,1.93339 12.23862,1.46669 17.2289,-1.07791 z m -342.55275,12.01696 c -7.05317,-4.30021 -8.80527,-10.26813 -9.59209,-32.67218 L 172.2785,311.2916 h -3.94158 c -3.75342,0 -3.94159,-0.29587 -3.94159,-6.1972 0,-6.16442 0.0255,-6.19721 4.82005,-6.19721 h 4.82004 v -7.44145 -7.44145 l 7.00122,-0.47721 c 3.85068,-0.26245 7.25914,-0.21898 7.57436,0.0967 0.31524,0.31558 0.57315,3.87898 0.57315,7.91864 v 7.34479 h 8.26294 8.26294 v 6.1972 6.19721 h -9.05822 -9.05822 l 0.45098,18.71645 c 0.43432,18.02418 0.57775,18.81898 3.87779,21.48813 2.70635,2.18898 4.66065,2.60257 9.29581,1.96725 l 5.86902,-0.80444 v 6.01024 c 0,5.06869 -0.48542,6.14032 -3.09861,6.84063 -6.64315,1.7803 -16.85962,0.86415 -21.42881,-1.92161 z m 92.49224,1.83603 c -1.62733,-0.31817 -5.29799,-2.6006 -8.15706,-5.07206 -4.74252,-4.09957 -5.24443,-5.20968 -5.7244,-12.66124 -0.64052,-9.94351 2.20372,-15.3578 10.13613,-19.29516 4.30446,-2.13656 8.16856,-2.62609 20.13136,-2.55028 16.27304,0.10314 16.38509,0.0314 13.38798,-8.56611 -3.47311,-9.96293 -20.4127,-11.79998 -29.58717,-3.20864 -2.7174,2.54468 -2.85925,2.54044 -7.21221,-0.21567 -3.72498,-2.35847 -4.21183,-3.23826 -3.02216,-5.46116 0.77997,-1.45738 3.98014,-4.3453 7.11149,-6.41756 7.39767,-4.89566 23.9479,-6.08811 33.55822,-2.4179 12.60729,4.81476 15.71701,13.86486 15.71701,45.74059 v 19.85999 l -5.85291,-0.42348 c -4.81277,-0.34822 -5.92917,-0.9592 -6.28197,-3.43798 -0.42476,-2.98437 -0.49288,-2.97405 -6.81112,1.03286 -5.51707,3.49882 -7.60543,4.02196 -15.40825,3.85984 -4.9644,-0.10315 -10.35763,-0.44787 -11.98494,-0.76604 z m 25.01845,-12.83355 c 4.39889,-2.71867 6.11581,-6.03185 6.15321,-11.87394 0.0231,-3.58715 -3.15426,-4.59202 -14.59991,-4.61759 -14.01121,-0.0312 -20.20836,7.97118 -12.29844,15.88111 4.37775,4.37774 14.18267,4.66625 20.74514,0.61042 z m 122.61956,10.3153 c -6.84631,-3.64024 -10.43614,-6.57775 -10.36295,-8.47992 0.024,-0.62219 1.57051,-2.86685 3.43684,-4.98817 l 3.39332,-3.85695 5.51537,4.43227 c 10.5768,8.49975 27.5485,6.71385 27.5485,-2.89888 0,-4.84368 -1.247,-5.6037 -15.8373,-9.65263 -6.0595,-1.68156 -12.6375,-4.0037 -14.61778,-5.16032 -5.15481,-3.01078 -8.10532,-8.78862 -8.10532,-15.87226 0,-11.83008 9.79584,-18.90915 26.16599,-18.90915 10.95036,0 18.42094,2.91963 23.28148,9.09882 3.76892,4.7914 3.69123,5.15507 -1.64489,7.69968 -4.41338,2.1046 -4.64322,2.05822 -8.97325,-1.81065 -3.57912,-3.19796 -5.71992,-3.97059 -11.00148,-3.97059 -7.78176,0 -12.67912,2.94352 -12.67912,7.6207 0,4.28508 3.88634,6.74297 15.14872,9.58075 12.33016,3.10683 19.93978,6.98278 21.82272,11.11539 0.87392,1.91805 1.58895,6.47324 1.58895,10.12262 0,12.62774 -9.56157,19.31852 -27.68231,19.37088 -8.58138,0.0248 -11.6446,-0.59544 -16.99749,-3.44159 z m 157.7356,-0.021 c -11.75831,-5.47351 -18.01051,-14.57522 -19.13833,-27.86082 -0.96267,-11.34031 1.91586,-19.19073 9.98163,-27.22224 18.19478,-18.11749 48.44264,-11.95105 57.37343,11.69634 11.28356,29.87719 -18.89748,57.03488 -48.21673,43.38672 z m 27.20075,-13.52272 c 10.45737,-9.56297 9.45086,-28.72553 -1.89942,-36.16252 -4.64433,-3.04308 -15.7647,-2.89074 -20.60738,0.2823 -13.77104,9.02312 -10.08934,35.45098 5.50579,39.5215 4.88875,1.27602 13.6837,-0.60767 17.00101,-3.64128 z m 97.97009,14.48872 c -8.19988,-4.31788 -9.61403,-9.05987 -9.61647,-32.2464 l -0.002,-20.31304 h -4.82005 c -4.78435,0 -4.82005,-0.0453 -4.82005,-6.10995 0,-5.88666 0.16358,-6.12573 4.47576,-6.5415 4.36467,-0.42083 4.48609,-0.611 4.89203,-7.66161 0.41496,-7.20755 0.4307,-7.23007 5.05169,-7.23007 2.54951,0 5.61571,-0.37616 6.81382,-0.83592 1.78862,-0.68635 2.17837,0.27908 2.17837,5.39598 0,9.95302 0.58753,10.58866 9.78744,10.58866 h 8.1156 v 6.19721 6.1972 h -9.08664 -9.08665 l 0.47942,18.54399 c 0.56366,21.80307 1.35097,23.35954 11.84708,23.42105 l 6.52572,0.0383 -0.47383,5.50863 c -0.26063,3.02975 -1.18804,5.96393 -2.06094,6.52041 -3.08563,1.96715 -15.3681,1.0716 -20.20016,-1.47287 z M 87.274546,319.55453 v -45.44617 h 8.26294 8.262944 v 20.65735 c 0,11.36155 0.3921,20.65736 0.87132,20.65736 0.47924,0 1.87361,-1.13199 3.09861,-2.51554 1.22501,-1.38355 9.57063,-10.67935 18.54585,-20.65736 l 16.31859,-18.14181 h 10.20018 10.20019 l -17.91154,20.06354 c -9.85134,11.03495 -17.91153,20.57657 -17.91153,21.20361 0,0.62704 3.27801,5.38724 7.28447,10.57821 4.00646,5.19097 12.35975,16.10012 18.5629,24.24256 l 11.27842,14.80443 h -10.13446 -10.13448 l -14.96992,-19.86451 -14.96993,-19.86452 -5.16433,4.99528 -5.16434,4.99529 v 14.86923 14.86923 h -8.262944 -8.26294 z M 219.4816,331.94896 v -33.05177 h 6.1972 c 6.16442,0 6.19721,0.0255 6.19721,4.82004 0,2.65103 0.24432,4.82006 0.54292,4.82006 0.29863,0 2.48945,-1.8183 4.86848,-4.04065 4.7213,-4.41036 12.8116,-7.67698 15.99133,-6.4568 1.3412,0.51467 2.00893,2.79416 2.00893,6.85806 0,5.93838 -0.12559,6.11074 -5.13898,7.05126 -7.14408,1.34023 -9.74054,2.9665 -12.83259,8.03756 -2.3292,3.81997 -2.67615,7.0169 -2.68063,24.70093 l -0.006,20.31306 h -7.57437 -7.57436 z m 118.13888,-10e-4 -0.39198,-33.05286 6.5415,10e-4 c 6.34999,0.001 6.54149,0.12202 6.54149,4.13256 0,5.01031 0.54202,5.07902 5.71673,0.72479 5.35835,-4.50875 14.04501,-6.71744 22.49546,-5.71975 8.51475,1.00526 12.89714,4.09527 16.8897,11.90888 2.86997,5.61665 3.0986,7.87168 3.0986,30.56112 v 24.49701 h -7.48559 -7.48559 l -0.43306,-23.95962 c -0.38289,-21.18382 -0.73418,-24.29189 -3.03216,-26.82762 -5.9341,-6.54806 -19.89123,-4.12186 -25.01517,4.34845 -2.34827,3.88187 -2.68318,7.05691 -2.68318,25.43677 v 21.00125 l -7.18238,3.9e-4 -7.1824,3.8e-4 z m 306.02541,10e-4 v -33.05177 h 6.1972 c 5.96768,0 6.19721,0.15301 6.19721,4.13147 0,4.62219 1.48415,5.25881 4.30715,1.84748 2.41042,-2.91278 11.9662,-7.28644 16.00592,-7.32587 2.80425,-0.0274 3.0986,0.62387 3.0986,6.85554 0,6.59241 -0.16137,6.88601 -3.78718,6.89094 -2.08295,0.002 -5.77119,1.21486 -8.19608,2.69342 -7.57164,4.61667 -8.6741,8.55332 -8.6741,30.97338 v 20.03716 h -7.57435 -7.57437 z M 352.49025,225.8389 c -17.74089,-11.25094 -33.35241,-34.22203 -40.19843,-59.14876 -3.4531,-12.57289 -3.49214,-42.68201 -0.0715,-55.08627 8.11642,-29.432071 27.75254,-51.869272 60.07358,-68.643068 28.11521,-14.591089 49.22126,-19.534366 82.89777,-19.415613 12.37872,0.04365 24.98563,0.592109 28.01539,1.218784 l 5.50863,1.139418 -5.50863,0.168784 c -14.68755,0.45 -44.906,6.978537 -62.46731,13.495739 -19.68724,7.306156 -34.82106,16.873559 -48.39382,30.593941 -15.73453,15.905633 -23.62201,29.771363 -29.93614,52.625905 -3.6432,13.18688 -3.2489,51.66015 0.67577,65.93688 4.07951,14.84011 7.93759,24.53438 13.32377,33.47901 2.59512,4.30964 4.26523,7.8357 3.71135,7.8357 -0.5539,0 -3.98761,-1.89021 -7.6305,-4.20045 z m 135.53693,-4.69609 c -22.33448,-5.09687 -30.47672,-10.50066 -72.24698,-47.94835 -15.70407,-14.07895 -38.50783,-29.77258 -52.73,-36.28899 -5.49142,-2.51609 -9.98389,-5.36502 -9.98331,-6.33093 10e-4,-2.95875 7.80402,-18.44762 13.56865,-26.9364 6.62058,-9.749252 24.61742,-26.930065 36.35105,-34.702822 24.01173,-15.906194 58.88058,-29.098597 81.67241,-30.900221 l 10.94253,-0.864978 -14.30681,4.856942 c -41.56854,14.111851 -77.87061,41.607902 -95.67018,72.462849 l -3.65104,6.32896 10.26595,5.07371 c 17.69371,8.7447 37.73954,23.0897 63.94343,45.75854 13.91924,12.04146 30.61685,26.12839 37.10579,31.30426 11.45247,9.13502 25.61606,17.44387 29.73546,17.44387 1.11305,0 2.40674,0.61972 2.87485,1.37715 1.22986,1.98994 -28.55934,1.49157 -37.8718,-0.63359 z"
       id="path1" />
  </g>
</svg>
